<svg xmlns="http://www.w3.org/2000/svg" viewBox="0 0 522.45 162.2"><path fill="#039" d="M123.76 11.73h14.53v55.55H168v13.15h-44.24zm98 52.8H197l-5.3 15.9h-15l25.22-68.7h14.92l25.22 68.7h-15.12zM218 53.25l-8.63-26.11-8.64 26.11zm92.7 15.21v12a32.79 32.79 0 01-7.26.69c-21.79 0-15.61-28.56-32.09-28.56h-3.24v27.84h-14.53v-68.7h14.53v28.46H272c10.9 0 19.34-7.16 19.34-28.46h14.36c0 15.9-5.5 28.56-15.41 35.33 9 7 8.44 21.4 17.27 21.4zm12.69-56.73H368V24h-30.08v15.51h26v12.36h-26v16.2h30.32v12.36h-44.85zm81.25 34.74c0-22 12-35.81 30.91-35.81 13.06 0 24.05 6.47 24.05 20.7a26.4 26.4 0 01-.79 6h-13.54a12.38 12.38 0 00.49-3.73c0-6.09-3.93-10-10.6-10-9.62 0-15.31 7.75-15.31 22.57 0 14.43 6.38 22.67 17 22.67 6.58 0 10.4-2.45 13.93-8.15l9.82 7c-5 8.93-12.56 13.84-25 13.84-18.99-.05-30.96-12.91-30.96-35.09zm65.86-8.54c0-16.48 11.49-25.71 26-25.71s25.92 8.84 25.92 25.78c0 16.39-11.39 25.52-26 25.52-14.42.03-25.92-8.71-25.92-25.59zm37.29.1c0-9.12-5-13.44-11.28-13.44s-11.38 4.12-11.38 13.54 5.1 13.54 11.28 13.54c6.38 0 11.38-3.82 11.38-13.67z" /><path fill="#23b574" d="M470.5 73.41h51.91v8.1H470.5z" /><path fill="#666" d="M132.73 115.09h-12.31v-4.93h29.89v4.93H138v36.1h-5.27zm26.48-4.93h26v4.93h-20.73v12.71H182v4.93h-17.52v13.54h20.75v4.92h-26zm32.89 20.64c0-12.9 6.86-21 17.76-21 8.2 0 13.19 4.22 13.19 11.14a11.56 11.56 0 01-.47 3.46h-4.81a12.9 12.9 0 00.29-2.7c0-4.57-3.28-7.38-8.49-7.38-7.56 0-11.84 6.21-11.84 16.47S202.65 147 210.27 147c4.22 0 7.38-1.58 10-5.69l3.52 2.93c-3.52 5.16-7.85 7.27-13.72 7.27-11.07.03-17.97-7.7-17.97-20.71zm41.37-20.64h5.27V128h19.4v-17.84h5.28v41h-5.28V132.9h-19.4v18.29h-5.27zm59.78 0h5l14.06 29.31 14.13-29.31h4.69v41H326V120.3l-1.06 2.93-10.84 22.45h-3.87l-10.84-22.45-1.06-2.93v30.89h-5zm50.72 0h26v4.93h-20.73v12.71h17.53v4.93h-17.53v13.54H370v4.92h-26zm35.72 0h26v4.93H385v12.71h17.53v4.93H385v13.54h20.75v4.92h-26zm46 4.93h-12.31v-4.93h29.89v4.93H431v36.1h-5.27zm26.25 19.28v-24.21h5.27v24.56c0 8.32 3.52 12.19 9.85 12.19s9.79-3.87 9.79-12.19v-24.56H482v24.21c0 13.07-6.44 17.17-14.94 17.17s-15.12-4.1-15.12-17.17zm42.55-24.21h13.07c9.26 0 14.89 3.93 14.89 12.84s-6.09 13.36-14.89 13.36h-7.79v14.83h-5.28zm12.84 21.75c6.56 0 9.67-3.28 9.67-8.74 0-5.27-3.17-8.49-9.85-8.49h-7.38v17.23z" /><path fill="#23b574" d="M46.84 22.73a4.06 4.06 0 00-5.55 1.16 3.91 3.91 0 001.24 5.38 3.84 3.84 0 005.3-1.1 4 4 0 00-.99-5.44zm7.5-12.48A2.78 2.78 0 0059 13.3a2.78 2.78 0 00-4.66-3.05zM41.75 56.9a4.06 4.06 0 001.16 5.55 4.14 4.14 0 005.39-1.26 4 4 0 00-1.1-5.3 3.9 3.9 0 00-5.43 1zm36.14-1.14a3.91 3.91 0 01-5.37 1.3 3.91 3.91 0 114.28-6.54 3.9 3.9 0 011.09 5.24zm-1.09-5.24a3.91 3.91 0 01-4.28 6.54 3.91 3.91 0 114.28-6.54zm13.91 58.41l-.58 2.15-.12.22-.24.1h-.34l-.24.1-.36.33-.37.44-.15.56.09.58v.23l-.12.11v.11l-.24.22-.35.21-.14.33-.14.46.09.46.43.6v.34l-.14.34h-.11l-.11-.12h-.23l-.12.22-.25.22-.24.21-.71.42-.7.19v.23l.43.37-.14.57-.27.67-.37.44-.23.1-.36.21-.24.1-.14.35-.15.68-.25.33v.89l-.13.22-.22-.13-.21-.36v-.23l-.11-.12-.12.11-.24.22-.13.22-.14.57-.23-.13-.32-.36v-.23l-.47.2-.13.34-.14.45-.14.45-.25.33-.13.22-.23.11v.34l.09.35.1.23.22.25.11.12.21.24.52.26.32.37-.26.55-.23.11-.47.09-.24.21-.49.55-.48.32.34.23.48-.17.33.25-.25.33-.36.21-.47.2-.35.09-.23.11.3.7-.25.45.1.23.09.47v.68l-.24.11v.34l.19.7v.3l.1.24v.23l-.35.21h-1.23l.32.47 1.2 1 .1.35-.24.1-.35.1h-.68v.3l.11.12h.57l.56.26-.13.34.08.58-.27.67-.36.44-1.22 1.19-.25.33-.27.68-.15.68.2.58.3.82.22.13.65.73.5 1.29-.16.79-.72.54-4.18.79-1.31.85-.46.09-1 .06-.46.08-.36.21-.36.33-.26.44-.41 1.24-.07 1.12.26 1 .52.94.75 1 .41.94.06.92-.48 1.21-.61.66-.93.18-.9-.29-1.67-1-6.49-3-1.14-.18-1 .17-.94.4-.84.67-.33.25-.78 1.56-.74.88-.51.89.07.81.42.71.87 1-.45-.25-.23.1-.35.1-.24.1-.22-.13-.22-.24-.1-.24-.09-.35-.1-.35-.22-.24-.44-.25-.22-.13-.1-.35-.07-.69-.23-.13h-.57l-.35.09-.13.34.2.59.21.24.22.24.21.24.09.46-.13.23-.35.09-.89-.39-1.21-1-.32-.48v-.8l-.3-.82-1-1.32-.52-.94-.2-.47-.09-.47v-.46l-.33-.24-.22-.13-.45-.14-.11-.12v-1.15l.74-.88.78-.76.55-1.1-.28-1.16-.51-1.06-.64-1-.52-1-.08-.58v-.57l.14-.45v-.57l-.09-.47-.19-.58-.09-.47.25-.33-.66-.61-2.24-.93-.54-.6-.71-1.65-.53-.83-.55-.38-1.47-.54-.55-.38-1.29-1.4-.77-.62-.79-.15-.22-.13-.92.06-.34-.25-1.31-1.11-.79-.27-.65-.61-.54-.72-.54-.6-.89-.51-.44-.37-.21-.36-.09-.35-.66-.61-.1-.23-1.31-1.11-.21-.36-.1-.23-.21-.36-.09-.46-.27-1.4.17-1 .29-1 1.11-1.77 1.11-3.27 1.14-1.89.39-.89.07-1.26-.16-1.16v-.69l.36-.32.25-.33.49-.66.39-.67.14-.57-.41-.82-.88-.74-2.1-1.32-1.13-.29h-.58l-.45-.14-.77-.5-.45-.15-1.16.17-1.38 2-.94.41-1-.41-.64-.84-1-2.12v-.92l-.09-.46-.21-.36-.21-.35.14-.45.14-.34.12-.22-.09-.35-.42-.72-.1-.35v-.34l.05-.8-.09-.46-.08-.58-.31-.6-.53-1.06-.53-.72-.55-.49-5.18-3.85-.32-.36-.21-.47-.08-.58-.31-.59-.32-.48-5.56-5.14-.53-.83-.14-.93-.07-.69-.1-.35-.1-.24-.73-.61v-.46L1.62 78l-.11-.23v-.35l.17-.91v-.91l-.1-.24-.1-.23-.1-.24-.44-.48-.31-.48-.1-.35L0 68.69l.08-1.38.07-1.26.43-1.47.57-1.34.61-.54 1.39-.38.14-.32v-.46l-.06-.81-.09-.46.16-.91v-.46l-.21-.47-.65-.61v-.57l.24-.25v-.23l.37-.55 1-.52 1-.52.76-.08.93-.17.82-.3.83-.53.51-.89.53-1.12v-.69l.19-1.25v-.45l.25-.44.38-.55 2.21-2.55.4-1 .08-1.37-.15-1.39-.4-1.17-.63-1-1.1-.87-.22-.12-.5-.24-.31-.59-.08-.69-.07-.72.18-1.3.47-1.24.41-1.13.51-.89.95-.63 6.14-.42.94-.41.48-.32.86-1.1.47-.2 2.2-.34.83-.41.48-.32.13-.33.24-.22 1-.52.25-.45.13-.22.14-.34-.08-.69v-.23l-.11-.12v-.11l.26-.56v-.69l.26-.56.27-.67.37-.44.25-.33 1-.64.36-.21.35-.21.27-.67.31-1.36.09-1.72.42-1.11.18-1.14v-.35L30 13l-.09-.42v-.46l-.1-.35-.1-.23h-.34l-.23-.13-.53-.72-.22-.24-1.88-1.14h-.23l-.34-.14-.53-.72-.67-.38-.19-.7V5.89L24.14 5l-.65-.73L21.61 3 21 2.47 20.63 2l-.32-.36-.67-.38-.32-.37.27-.89h42.8l-4.56 7.1a4.64 4.64 0 00-5.24 2 5 5 0 001.32 6.9 4.92 4.92 0 006.54-7.15L66.14 0h11L63.67 20.68 51 23.21a8.14 8.14 0 00-2.48-2.89 7 7 0 00-9.64 2 7.09 7.09 0 002 9.63 6.94 6.94 0 009.49-2.1 5.63 5.63 0 001-2.85l14.47-3.08L81.11.55 81 2.74 80.58 4l.07.89-.06 1 .26 1.4.4 1 .85 1.31.38 1.4.5.34.89.51.44.37.08.35-12 18.19L60 33.48 47.5 52.55a7.07 7.07 0 103 2.4.91.91 0 00-.11-.16l11.77-18 12.44-2.47 10.96-16.64.07.61.3.71.82 1.91.64.84.33.25.09.41.1 4.26.16 3.13-11.38 17.39a7 7 0 00-7.77 2.59v.06a7 7 0 002 9.68 6.91 6.91 0 008.92-10.3l8.36-12.81.08 2.82.1 4.26.11 4.25.1 4.26.11 4.25.15 2.9L81 71.31a4.47 4.47 0 00-5 1.92v.06a4.9 4.9 0 001.3 6.81 5 5 0 006.85-1.55 4.63 4.63 0 00-.39-5.45V73l5.37-8.16.11 4.25.11 4.26.1 4.25.1 4.26.08 4.14.23 4.28-.07 1.14v.12l-1.42.72-.37.44-.06.53.08.58.52 1v1.27l-1.46 1.41v1.15l.1.23.11.13.36.32.76.74.21.47.28 1 .2.58.21.24.69.65.21.36v1.15l-.14.34-.26.56v.34l.29 1 .36 1.05zm-13-34.56a2.75 2.75 0 00.74 3.82h.06a2.76 2.76 0 10-.8-3.9z" /></svg>