<svg xmlns="http://www.w3.org/2000/svg" viewBox="0 0 286.42 512"><defs><style>.cls-1{fill:#23b574;}</style></defs><title>logo-illinois</title><g id="Layer_2" data-name="Layer 2"><g id="Layer_1-2" data-name="Layer 1"><path id="Illinois" class="cls-1" d="M147.9,71.77a12.82,12.82,0,0,0-17.52,3.66,12.32,12.32,0,0,0,3.9,17l.07,0A12.16,12.16,0,0,0,151.09,89,12.63,12.63,0,0,0,147.9,71.77Zm23.68-39.4A8.8,8.8,0,0,0,186.3,42h0a8.8,8.8,0,1,0-14.72-9.63ZM284.4,336.94l-.91-3.15v-1.08l.82-1.77.44-1.07v-3.63l-.66-1.14L282,323.18l-.66-.76-.63-1.83-.89-3.16-.66-1.48-2.4-2.34-1.14-1-.34-.41-.32-.73v-3.63l4.61-4.45v-4l-1.64-3.16-.25-1.83.19-1.67,1.16-1.39,4.49-2.28v-.38l.22-3.59L283,271.55l-.38-13.07L282.32,245,282,231.61l-.34-13.45-.35-13.42h0l-17,25.76v.32A14.65,14.65,0,0,1,265.58,248,15.79,15.79,0,0,1,244,252.92a15.47,15.47,0,0,1-4.11-21.49,2.43,2.43,0,0,1,.14-.2,14.13,14.13,0,0,1,15.78-6.06h0l24.92-38.08-.48-9.16-.34-13.42-.32-13.45-.35-13.42-.31-13.45-.26-8.91L252.1,155.92a20.76,20.76,0,0,1,2.21,25.77,22.11,22.11,0,0,1-36.82-24.1,20.72,20.72,0,0,1,24.47-8.3L278.09,94.1l-.51-9.89-.31-13.45L277,69.47l-1-.79-2-2.66-2.59-6-.95-2.24-.22-1.92-34.54,52.54-39.28,7.8L159.17,173a2.89,2.89,0,0,1,.35.51,21.47,21.47,0,0,1,.82,24.82A21.69,21.69,0,1,1,150,165.93l39.47-60.21,39.13-8.59,37.89-57.44-.26-1.1-1.38-1.17L262,35.81l-1.58-1.08-1.2-4.42-2.69-4.13L255.29,23l-.82-4.42.19-3.16-.22-2.81,1.32-4,.35-6.91L207.86,75.53l-45.69,9.72a17.81,17.81,0,0,1-3.15,9,21.9,21.9,0,0,1-30,6.63,22.38,22.38,0,0,1-6.32-30.4,22.11,22.11,0,0,1,30.44-6.32A25.53,25.53,0,0,1,161,73.29l40-8L243.48,0h-11.9l-12,.41H208.84l-18,27.53a15.54,15.54,0,0,1-20.66,22.58,15.79,15.79,0,0,1-4.16-21.79,14.65,14.65,0,0,1,16.54-6.31L197,.32h-1.74L183.3,1H122.73l-12-.1H98.45l-12,.1H74.14L62.2.66h-.34L61,2.81,62,4l2.12,1.2,1,1.13,1,1.52,2.09,1.58,5.93,3.94,2,2.31,1.3,3v4.67l.6,2.21,2.11,1.2L81.91,29,83,29.4h.73L89.64,33l.7.75L92,36l.73.41h1.07l.32.72.31,1.11v1.45l.29,1.33,1.54,4.42v1.1l-.56,3.6-1.33,3.51-.28,5.43-1,4.29-.86,2.12-1.1.66L90,66.85l-3.16,2-.78,1L84.91,71.3l-.86,2.11-.82,1.77v2.18l-.82,1.77v.35l.35.37v.73L83,82.76l-.44,1.07-.41.7L81.37,86l-3.16,1.64-.75.7-.42,1-1.51,1-2.62,1.29-7,1.08-1.48.63-2.72,3.47-1.51,1-3,1.3-19.39,1.32-3,2-1.61,2.81L32,108.81l-1.49,3.92-.57,4.1.22,2.21.26,2.18,1,1.86,1.42.82.69.38L37,127l2,3.16,1.27,3.69.47,4.39-.25,4.33-1.26,3.15-7,8.06L31,155.54l-.79,1.39v1.45l-.6,4v2.18l-1.68,3.54-1.61,2.81-2.62,1.67-2.59.95-2.93.53-2.4.26-3.16,1.64-3,1.64-1.17,1.74V180l-.76.7v1.8l2.06,1.92.66,1.49v1.45l-.51,2.87.29,1.46.19,2.55v1.46L10,196.78,5.56,198l-1.93,1.7-1.8,4.24L.47,208.56l-.22,4L0,216.89l1.67,15.32.32,1.1,1,1.52,1.39,1.51.31.76.32.73.31.76v2.87l-.53,2.87v1.11l.35.72,1,.79.25,1.46,2.08,1.92.32.76.32,1.11.22,2.17.56,2.94,1.68,2.62,17.55,16.23,1,1.52,1,1.86.26,1.83.66,1.49,1,1.13,16.36,12.16,1.73,1.55L52.83,300l1.64,3.35,1,1.89L55.7,307l.28,1.45L55.83,311v1.07l.31,1.11,1.33,2.27.28,1.11-.38.69-.44,1.08-.44,1.42.66,1.1.67,1.14.28,1.45v2.91l3.16,6.69,2,2.65,3.16,1.3,3-1.3,4.36-6.31,3.66-.54,1.42.47,2.44,1.58,1.42.45h1.83l3.57.91,6.63,4.17,2.78,2.34,1.29,2.58-.44,1.8-1.23,2.12-1.55,2.08-.79,1.05-1.14,1v2.18l.51,3.66-.22,4-1.23,2.81-3.6,6L85.6,378.34l-3.5,5.59-.92,3.16-.54,3.15.86,4.42.28,1.46.66,1.13.32.73.66,1.14,4.14,3.5.32.73L90,405.27l.28,1.11.67,1.14,1.39,1.16,2.81,1.61,1.7,1.9,1.71,2.27,2,1.93,2.49.85,4.14,3.51,1.07.79,2.91-.19.69.41,2.5.47,2.43,2,4.1,4.58,1.74,1.2,4.64,1.7,1.74,1.2,1.67,2.62,2.24,5.21,1.71,1.9,7.07,2.93,2.09,1.93-.79,1,.28,1.49.6,1.83.28,1.48v1.8l-.44,1.42v1.8l.26,1.83,1.64,3,2,3.16,1.61,3.35.88,3.66-1.73,3.47-2.31,2.4L143.76,482v3.63l.35.38,1.42.44.7.41,1,.76V489l.28,1.49.63,1.48,1.65,3,3.15,4.17,1,2.59-.16,2.52,1,1.52,3.82,3.16,2.81,1.23,1.11-.29.41-.72-.28-1.45L162,507l-.69-.76-.66-.76-.64-1.86.41-1.07,1.11-.29h1.8l.73.41.22,2.18.31,1.11.7.41,1.39.79.69.75.32,1.11.28,1.1.32.76.69.76.7.41.75-.32,1.11-.31.73-.32,1.42.79-2.75-3.16-1.33-2.24-.22-2.56,1.61-2.81,2.34-2.77,2.46-4.93,1-.79,2.66-2.05,3-1.26,3.16-.54,3.6.57,20.49,9.47,5.28,3.16,2.84.91,2.94-.57,1.92-2.08,1.52-3.82-.19-2.91-1.3-3-2.36-3.16-1.65-3-.82-3.22.22-3.63,1.3-3.92.82-1.39,1.14-1,1.13-.66,1.45-.25,3.16-.19,1.45-.29,4.14-2.68,13.2-2.5,2.27-1.7.51-2.49-1.58-4.08L245,454l-.7-.41-.94-2.59-.64-1.83.48-2.15.85-2.15.79-1,3.85-3.76,1.14-1.39.85-2.11-.25-1.83.41-1.08-1.77-.82h-1.8l-.35-.38v-.72h2.15l1.11-.32.75-.32-.31-1.1-3.79-3.16-1-1.48h3.88l1.11-.67V424l-.32-.76v-1.07l-.6-2.21v-1.08l.76-.34v-2.15l-.28-1.49-.32-.72.79-1.42-1-2.21.73-.35,1.1-.28,1.49-.64,1.13-.66.79-1-1-.79-1.51.54-1.05-.76,1.52-1,1.55-1.74.75-.66,1.49-.29.72-.34.83-1.74-1-1.17-1.65-.82-.66-.76-.35-.38-.69-.79-.32-.72-.28-1.11V394l.72-.35.41-.69.79-1,.45-1.43.44-1.42.41-1.07,1.48-.63v.73l1,1.13.73.41.44-1.8.41-.69.76-.7.38-.34.35.37v.73l.66,1.14.69.41.41-.7v-2.81l.79-1,.48-2.15.41-1.07.76-.32,1.13-.66.73-.31,1.17-1.39.85-2.12.44-1.8-1.36-1.17v-.72l2.21-.6,2.25-1.33.75-.66.79-.7.38-.69h.73l.35.38h.34l.45-1.08v-1.07l-1.36-1.89-.29-1.46.45-1.45.44-1,1.1-.66.76-.7v-.35l.38-.34v-.73l-.29-1.83.48-1.77,1.17-1.39,1.13-1,.76-.32h1.07l.76-.31.38-.7,1.83-6.79-.88-3.69ZM131.83,179.67a12.81,12.81,0,0,0,3.66,17.52,13.07,13.07,0,0,0,17-4A12.62,12.62,0,0,0,149,176.48a12.32,12.32,0,0,0-17.14,3.08Zm93.49-17A12.63,12.63,0,0,0,229,180.17a12.34,12.34,0,0,0,13.51-20.65A12.63,12.63,0,0,0,225.32,162.71Zm20.09,72.12a8.68,8.68,0,0,0,2.32,12.06,1.37,1.37,0,0,1,.2.13,8.72,8.72,0,1,0-2.52-12.32h0Z"/></g></g></svg>