<svg xmlns="http://www.w3.org/2000/svg" viewBox="0 0 286.42 512"><path fill="#23b574" d="M147.9 71.77a12.82 12.82 0 00-17.52 3.66 12.32 12.32 0 003.9 17h.07A12.16 12.16 0 00151.09 89a12.63 12.63 0 00-3.19-17.23zm23.68-39.4A8.8 8.8 0 00186.3 42a8.8 8.8 0 10-14.72-9.63zm-39.75 147.3a12.81 12.81 0 003.66 17.52 13.07 13.07 0 0017-4 12.62 12.62 0 00-3.49-16.71 12.32 12.32 0 00-17.14 3.08zM246 176.06a12.34 12.34 0 01-17 4.11 12.34 12.34 0 1113.51-20.65 12.36 12.36 0 013.49 16.54zm-3.46-16.54A12.34 12.34 0 01229 180.17a12.34 12.34 0 1113.51-20.65zM286.42 344l-1.83 6.79-.38.7-.76.31h-1.07l-.76.32-1.13 1-1.17 1.39-.48 1.77.29 1.83v.73l-.38.34v.35l-.76.7-1.1.66-.44 1-.45 1.45.29 1.46 1.35 1.89v1.07l-.44 1.08h-.34l-.35-.38h-.73l-.38.69-.79.7-.75.66-2.25 1.33-2.21.6v.72l1.36 1.17-.44 1.8-.85 2.12-1.17 1.39-.73.31-1.13.66-.76.32-.41 1.07-.48 2.15-.79 1V388l-.41.7-.69-.41-.66-1.14v-.73l-.35-.37-.38.34-.76.7-.41.69-.44 1.8-.73-.41-1-1.13v-.73l-1.48.63-.41 1.07-.44 1.43-.45 1.42-.79 1-.41.69-.72.35v1.1l.28 1.11.32.72.69.79.35.38.66.76 1.65.82 1 1.17-.83 1.74-.72.34-1.49.29-.75.66-1.55 1.74-1.52 1 1.05.76 1.51-.54 1 .79-.79 1-1.13.66-1.49.64-1.1.28-.73.35 1 2.21-.79 1.42.32.72.28 1.49v2.15l-.76.34V420l.6 2.21v1.07l.32.76v.72l-1.11.67h-3.88l1 1.48 3.79 3.16.31 1.1-.75.32-1.11.32H247v.72l.35.38h1.8l1.77.82-.41 1.08.25 1.83-.85 2.11-1.14 1.39-3.85 3.76-.79 1-.85 2.15-.48 2.15.64 1.83.94 2.59.7.41 2.05 2.3 1.58 4.08-.51 2.49-2.27 1.7-13.2 2.5-4.14 2.68-1.45.29-3.16.19-1.45.25-1.13.66-1.14 1-.82 1.39-1.3 3.92-.22 3.63.82 3.22 1.65 3 2.36 3.16 1.3 3 .19 2.91-1.52 3.82-1.92 2.08-2.94.57-2.84-.91-5.28-3.16-20.54-9.5-3.6-.57-3.16.54-3 1.26-2.66 2.05-1 .79-2.46 4.93-2.32 2.77-1.61 2.82.22 2.55 1.33 2.24 2.75 3.16-1.42-.79-.73.32-1.11.31-.75.32-.7-.41-.69-.76-.32-.76-.28-1.1-.32-1.11-.69-.75-1.39-.79-.7-.41-.31-1.11-.22-2.18-.73-.41h-1.8l-1.11.29-.41 1.07.64 1.86.66.76.69.76.67.76.28 1.45-.41.72-1.11.29-2.81-1.23-3.82-3.16-1-1.52.16-2.52-1-2.59-3.13-4.15-1.65-3-.63-1.48-.28-1.49v-1.45l-1-.76-.7-.41-1.42-.44-.35-.38V482l2.34-2.78 2.31-2.4 1.73-3.47-.88-3.66-1.61-3.35-2-3.16-1.64-3-.26-1.83v-1.8l.44-1.42v-1.8l-.28-1.48-.6-1.83-.35-1.52.79-1-2.09-1.93-7.07-2.93-1.71-1.9-2.24-5.21-1.68-2.66-1.74-1.2-4.64-1.7-1.74-1.2-4.1-4.58-2.43-2-2.5-.47-.69-.41-2.91.19-1.07-.79-4.14-3.51-2.49-.85-2-1.93-1.71-2.27-1.7-1.9-2.81-1.61-1.39-1.16-.67-1.14-.27-1.07-2.08-1.92-.32-.73-4.14-3.5-.7-1.12-.32-.73-.66-1.13-.28-1.46-.86-4.42.54-3.15.92-3.16 3.5-5.59L89.11 368l3.6-6 1.23-2.81.22-4-.51-3.66v-2.18l1.14-1 .79-1.05 1.55-2.08 1.23-2.12.44-1.8-1.29-2.58-2.78-2.34-6.63-4.17-3.57-.91H82.7l-1.42-.45-2.44-1.58-1.42-.47-3.66.54-4.36 6.31-3 1.3-3.16-1.3-2-2.65-3.16-6.69v-2.91l-.26-1.4-.67-1.14-.66-1.1.44-1.42.44-1.08.38-.69-.28-1.11-1.33-2.27-.31-1.11V311l.15-2.53-.28-1.47-.25-1.83-1-1.89-1.62-3.28-1.68-2.27-1.73-1.55L33.06 284l-1-1.13-.66-1.49-.26-1.83-1-1.86-1-1.52-17.55-16.24-1.68-2.62-.56-2.94-.22-2.18-.32-1.1-.32-.76-2.08-1.92-.25-1.41-1-.79-.35-.72v-1.11l.53-2.87v-2.87l-.34-.81-.32-.73-.31-.76L3 234.83l-1-1.52-.32-1.1L0 216.89l.25-4.35.22-4 1.36-4.64 1.8-4.24L5.56 198l4.39-1.2.44-1.07v-1.46l-.19-2.55-.29-1.46.51-2.87v-1.45l-.66-1.49-2.06-1.94v-1.8l.76-.7v-.72l1.17-1.74 3-1.64 3.16-1.64 2.4-.26 2.93-.53 2.59-.95 2.62-1.67 1.61-2.81 1.68-3.54v-2.18l.6-4v-1.45l.79-1.39 1.2-1.73 7-8.06 1.26-3.15.25-4.33-.47-4.39-1.25-3.64-2-3.19-3.48-2.75-.69-.38-1.42-.82-1-1.86-.26-2.19-.22-2.21.57-4.1 1.5-3.88 1.29-3.57 1.61-2.81 3-2 19.39-1.32 3-1.3 1.51-1 2.72-3.47 1.48-.63 7-1.08 2.62-1.29 1.51-1 .42-1 .75-.7L81.37 86l.79-1.42.41-.7.43-1.12-.25-2.18v-.72l-.35-.38v-.35l.82-1.77v-2.18l.82-1.77.86-2.11 1.17-1.39.78-1 3.16-2 1.14-.67 1.1-.66.86-2.12 1-4.29.28-5.43 1.33-3.51.56-3.6v-1.1l-1.54-4.42-.29-1.33v-1.51l-.31-1.11-.32-.72h-1.08L92 36l-1.67-2.28-.7-.75-5.93-3.6H83L81.91 29l-1.68-2.28-2.11-1.2-.6-2.21V18.6l-1.3-3-2-2.3-5.98-3.92-2.09-1.58-1-1.52-1-1.13L62 4l-1-1.19.86-2.81H197l-14.4 22.42a14.65 14.65 0 00-16.54 6.31 15.79 15.79 0 004.16 21.79 15.54 15.54 0 0020.66-22.58L208.84 0h34.64L201 65.3l-40 8a25.53 25.53 0 00-7.83-9.13 22.11 22.11 0 00-30.44 6.32 22.38 22.38 0 006.32 30.4 21.9 21.9 0 0030-6.63 17.84 17.84 0 003.15-9l45.69-9.72 48.22-73.8-.35 6.91-1.32 4 .22 2.81-.19 3.16.82 4.42 1.26 3.16 2.69 4.13 1.2 4.42 1.56 1.06 2.82 1.61 1.38 1.17.26 1.1-37.88 57.44-39.13 8.59L150 165.93a21.69 21.69 0 1010.36 32.4 21.47 21.47 0 00-.82-24.82 2.89 2.89 0 00-.35-.51l37.17-56.83 39.28-7.8 34.54-52.54.22 1.92.95 2.24 2.59 6 2 2.66 1 .79.29 1.29.31 13.45.51 9.89L242.16 149a22 22 0 00-24.53 8.18l-.12.18-.12.18a22.13 22.13 0 006.41 30.56l.13.08.13.08a21.81 21.81 0 0028.16-32.52l26.4-40.46.26 8.91.31 13.45.35 13.42.32 13.45.34 13.42.48 9.16-24.92 38.08a14.13 14.13 0 00-15.76 6.06 2.43 2.43 0 00-.14.2 15.47 15.47 0 004.14 21.49 15.79 15.79 0 0021.58-4.92 14.65 14.65 0 00-1.23-17.21v-.32l17-25.76.35 13.42.34 13.45.32 13.42.31 13.45.38 13.07.73 13.52-.22 3.59v.37l-4.56 2.32-1.16 1.39-.19 1.67.25 1.83 1.64 3.16v4l-4.54 4.46v3.63l.32.73.34.41 1.14 1 2.4 2.34.66 1.48.89 3.16.63 1.83.66.76 2.09 1.92.66 1.14v3.63l-.44 1.07-.82 1.77v1.08l.91 3.15 1.14 3.32zm-41-109.12a8.68 8.68 0 002.32 12.06 1.37 1.37 0 01.2.13 8.72 8.72 0 10-2.52-12.32z" /></svg>