<svg xmlns="http://www.w3.org/2000/svg" viewBox="0 0 512 512"><circle cx="256" cy="256" r="256" fill="#23b574"/><path fill="#fff" d="M249.91 118.41a9.73 9.73 0 00-13.29 2.78 9.33 9.33 0 003 12.86h.06a9.23 9.23 0 0012.69-2.63 9.58 9.58 0 00-2.46-13.01zm18-29.87a6.67 6.67 0 0011.09 7.3 6.67 6.67 0 10-11.16-7.3zm-30.18 111.67a9.71 9.71 0 002.77 13.28 9.9 9.9 0 0012.9-3 9.56 9.56 0 00-2.63-12.68 9.33 9.33 0 00-13 2.34zm86.52-2.74a9.36 9.36 0 01-12.87 3.12 9.36 9.36 0 1110.25-15.66 9.37 9.37 0 012.62 12.54zm-2.62-12.54a9.36 9.36 0 01-10.25 15.66 9.36 9.36 0 1110.25-15.66zm33.29 139.82l-1.38 5.15-.29.53-.58.24h-.81l-.57.24-.87.79-.88 1.05-.36 1.34.21 1.39v.52l-.28.26v.26l-.58.53-.83.5-.34.79-.33 1.11.21 1.1 1 1.43v.82l-.34.81h-.26l-.26-.29h-.55l-.29.53-.6.53-.57.5-1.7 1-1.68.46v.55l1 .89-.33 1.36-.65 1.6-.89 1.06-.55.24-.86.5-.57.24-.31.81-.36 1.63-.6.79v2.13l-.31.53-.53-.31-.5-.87V357l-.27-.28-.26.28-.58.53-.31.52-.33 1.37-.55-.31-.77-.87v-.55l-1.12.48-.32.82-.33 1.07-.34 1.08-.59.79-.32.53-.55.26v.81l.22.84.24.55.52.6.27.29.5.57 1.25.63.76.88-.62 1.32-.55.26-1.13.22-.57.5-1.17 1.32-1.15.76.79.58 1.15-.41.79.6-.6.79-.86.5-1.13.48-.84.21-.55.27.72 1.67-.6 1.08.24.55.22 1.13v1.62l-.58.27v.81l.46 1.68v.81l.24.58v.51l-.84.5h-2.95l.77 1.12 2.87 2.4.24.84-.57.23-.84.24H325v.55l.27.29h1.36l1.34.62-.31.82.19 1.39-.65 1.6-.86 1.05-2.92 2.85-.6.79-.64 1.63-.36 1.63.48 1.39.72 2 .52.31 1.56 1.75 1.19 3.09-.38 1.89-1.72 1.29-10 1.89-3.13 2-1.1.21-2.4.14-1.1.2-.86.5-.86.79-.64 1-1 3-.16 2.75.62 2.44 1.24 2.25 1.8 2.4 1 2.25.14 2.2-1.15 2.9-1.46 1.58-2.22.43-2.16-.7-4-2.39-15.54-7.18-2.73-.43-2.39.4-2.25 1-2 1.56-.79.6-1.87 3.73-1.77 2.11-1.22 2.1.16 1.94 1 1.7 2.08 2.39-1.07-.6-.55.24-.84.24-.58.24-.52-.31-.53-.58-.24-.57-.22-.84-.23-.84-.53-.57-1.05-.6-.53-.31-.24-.84-.17-1.65-.55-.31h-1.36l-.84.21-.31.82.48 1.41.5.58.53.57.5.57.21 1.11-.31.55-.83.21-2.14-.93-2.89-2.4-.77-1.14.12-1.92-.72-2-2.39-3.16-1.23-2.21-.48-1.13-.22-1.12v-1.1l-.79-.58-.53-.31-1.07-.33-.27-.29v-2.75l1.78-2.11 1.74-1.82 1.32-2.63-.67-2.78-1.22-2.54-1.53-2.39-1.25-2.28-.19-1.38v-1.37l.34-1.08v-1.36l-.22-1.13-.46-1.38-.21-1.14.6-.79-1.58-1.46-5.36-2.23-1.3-1.43-1.7-4-1.27-2-1.31-.91-3.52-1.18-1.32-.91-3.11-3.47-1.84-1.49-1.89-.35-.53-.32-2.2.15-.82-.6-3.13-2.66-1.89-.64-1.56-1.46-1.29-1.73-1.29-1.43-2.13-1.22-1.06-.89-.5-.86-.22-.84-1.58-1.46-.24-.55-3.16-2.7-.5-.86-.24-.55-.51-.86-.21-1.1-.65-3.35.41-2.4.69-2.39 2.66-4.24 2.66-7.83 2.73-4.52.93-2.13.17-3-.39-2.77v-1.66l.87-.76.59-.79 1.18-1.58.93-1.61.34-1.36-1-2-2.11-1.77-5-3.16-2.7-.7h-1.39l-1.08-.33-1.84-1.2-1.08-.36-2.78.41-3.3 4.79-2.25 1-2.39-1-1.54-2-2.39-5.07v-2.2l-.21-1.1-.51-.87-.5-.83.34-1.08.33-.81.29-.53-.22-.84-1-1.72-.24-.84v-.81l.12-1.92-.22-1.1-.19-1.39-.74-1.43-1.25-2.54-1.27-1.73-1.31-1.17-12.4-9.21-.77-.87-.5-1.12-.19-1.39-.74-1.41-.77-1.15-13.31-12.3-1.27-2-.43-2.23-.17-1.65-.24-.84-.24-.57-1.58-1.46-.19-1.1-.79-.6-.26-.55v-.84l.41-2.18v-2.18l-.24-.57-.24-.55-.24-.58L140 242l-.75-1.14-.24-.84-1.26-11.61.19-3.31.16-3 1-3.52 1.37-3.21 1.46-1.29 3.33-.91.33-.81v-1.11l-.14-1.93-.22-1.11.38-2.17V205l-.5-1.13-1.55-1.46V201l.57-.53v-.55l.89-1.32 2.27-1.24 2.39-1.25 1.82-.19 2.23-.41 2-.71 2-1.27 1.27-2.13 1.27-2.68v-1.66l.45-3V183l.6-1.05.91-1.32 5.29-6.1 1-2.4.19-3.28-.36-3.32-1-2.8-1.5-2.4-2.64-2.08-.52-.29-1.08-.62-.74-1.41-.19-1.65-.17-1.68.43-3.11 1.12-3 1-2.71 1.22-2.13 2.27-1.5 14.7-1 2.25-1 1.15-.77 2.06-2.63 1.12-.48 5.27-.81 2-1 1.15-.77.31-.79.58-.53 2.39-1.24.6-1.08.31-.53.34-.81-.19-1.65v-.55l-.27-.29V124l.63-1.34V121l.62-1.34.64-1.61.89-1 .6-.79 2.39-1.53.86-.51.84-.5.65-1.6.74-3.26.22-4.12 1-2.65.43-2.73v-.84l-1.17-3.35-.22-1V93l-.24-.84-.24-.55h-.81l-.55-.31-1.27-1.72-.53-.58-4.5-2.72h-.55l-.81-.34-1.27-1.72-1.6-.91-.46-1.68V78.1l-1-2.25L194 74.1l-4.51-3-1.57-1.2-.77-1.15-.77-.86-1.58-.89-.77-.86.65-2.13h102.45L276.22 81a11.12 11.12 0 00-12.55 4.78 12 12 0 003.16 16.52 11.78 11.78 0 0015.66-17.12L296.11 64h26.26l-32.17 49.5-30.36 6.06a19.32 19.32 0 00-5.93-6.92 16.76 16.76 0 00-23.08 4.79 17 17 0 004.79 23 16.61 16.61 0 0022.72-5 13.48 13.48 0 002.39-6.82l34.64-7.37 36.57-55.94-.26 5.24-1 3 .16 2.13-.14 2.39.62 3.35 1 2.39 2 3.14.91 3.35 1.2.82 2.13 1.22 1.05.88.2.84-28.73 43.54-29.66 6.51-29.92 45.65a16.45 16.45 0 107.85 24.56 16.27 16.27 0 00-.62-18.81 2.65 2.65 0 00-.26-.39l28.17-43.08 29.78-5.92 26.19-39.83.16 1.46.72 1.7 2 4.57 1.53 2 .79.6.21 1 .24 10.2.38 7.49-27.27 41.7a16.45 16.45 0 00-5-.78 16.82 16.82 0 00-13.62 7l-.09.13-.09.14a16.79 16.79 0 004.86 23.17l.09.06.1.06A16.53 16.53 0 00329 182.07l20-30.67.19 6.75.24 10.19.27 10.18.24 10.2.26 10.17.36 6.94-18.88 28.87a10.74 10.74 0 00-12 4.6l-.1.15a11.73 11.73 0 003.12 16.29 12 12 0 0016.4-3.71 11.12 11.12 0 00-.94-13.05v-.23l12.86-19.54.26 10.18.26 10.19.24 10.18.24 10.19.29 9.91.55 10.25-.17 2.73v.29l-3.4 1.72-.88 1-.15 1.27.2 1.39 1.24 2.39v3l-3.49 3.38v2.75l.23.55.27.31.86.77 1.82 1.77.5 1.13.67 2.39.48 1.39.5.57 1.58 1.46.51.86v2.76l-.34.81-.62 1.34v.82l.69 2.39.86 2.51zM323.83 242a6.59 6.59 0 001.76 9.15l.15.09a6.61 6.61 0 10-1.91-9.33z"/></svg>