<svg xmlns="http://www.w3.org/2000/svg" viewBox="0 0 522.45 162.2"><defs><style>.cls-1{fill:#039;}.cls-2{fill:#23b574;}.cls-3{fill:#666;}</style></defs><title>logo</title><g id="Layer_2" data-name="Layer 2"><g id="Layer_1-2" data-name="Layer 1"><path class="cls-1" d="M123.76,11.73h14.53V67.28H168V80.43H123.76Zm98,52.8H197l-5.3,15.9h-15l25.22-68.7h14.92l25.22,68.7H226.94ZM218,53.25l-8.63-26.11-8.64,26.11Zm92.7,15.21v12a32.84,32.84,0,0,1-7.26.69c-21.79,0-15.61-28.56-32.09-28.56h-3.24V80.43H253.58V11.73h14.53V40.19H272c10.9,0,19.34-7.16,19.34-28.46H305.7c0,15.9-5.5,28.56-15.41,35.33,9,7,8.44,21.4,17.27,21.4Zm12.69-56.73H368V24H337.92V39.51h26V51.87h-26v16.2h30.32V80.43H323.39Zm81.25,34.74c0-22,12-35.81,30.91-35.81,13.06,0,24.05,6.47,24.05,20.7a26.46,26.46,0,0,1-.79,6H445.27a12.27,12.27,0,0,0,.49-3.73c0-6.09-3.93-10-10.6-10-9.62,0-15.31,7.75-15.31,22.57,0,14.43,6.38,22.67,17,22.67,6.58,0,10.4-2.45,13.93-8.15l9.82,7c-5,8.93-12.56,13.84-25,13.84C416.61,81.51,404.64,68.65,404.64,46.47Zm65.86-8.54c0-16.48,11.49-25.71,26-25.71S522.42,21.06,522.42,38c0,16.39-11.39,25.52-26,25.52C482,63.55,470.5,54.81,470.5,37.93Zm37.29.1c0-9.12-5-13.44-11.28-13.44s-11.38,4.12-11.38,13.54,5.1,13.54,11.28,13.54C502.79,51.67,507.79,47.85,507.79,38Z"/><rect class="cls-2" x="470.5" y="73.41" width="51.91" height="8.1"/><path class="cls-3" d="M132.73,115.09H120.42v-4.93h29.89v4.93H138v36.1h-5.27Zm26.48-4.93h26v4.93H164.48V127.8H182v4.93H164.48v13.54h20.75v4.92h-26ZM192.1,130.8c0-12.9,6.86-21,17.76-21,8.2,0,13.19,4.22,13.19,11.14a11.32,11.32,0,0,1-.47,3.46h-4.81a12.84,12.84,0,0,0,.29-2.7c0-4.57-3.28-7.38-8.49-7.38-7.56,0-11.84,6.21-11.84,16.47S202.65,147,210.27,147c4.22,0,7.38-1.58,10-5.69l3.52,2.93c-3.52,5.16-7.85,7.27-13.72,7.27C199,151.54,192.1,143.81,192.1,130.8Zm41.37-20.64h5.27V128h19.4V110.16h5.28v41h-5.28V132.9h-19.4v18.29h-5.27Zm59.78,0h5l14.06,29.31,14.13-29.31h4.69v41H326V120.3l-1.06,2.93-10.84,22.45h-3.87l-10.84-22.45-1.06-2.93v30.89h-5Zm50.72,0h26v4.93H349.24V127.8h17.53v4.93H349.24v13.54H370v4.92H344Zm35.72,0h26v4.93H385V127.8h17.53v4.93H385v13.54h20.75v4.92h-26Zm46,4.93H413.38v-4.93h29.89v4.93H431v36.1h-5.27Zm26.25,19.28V110.16h5.27v24.56c0,8.32,3.52,12.19,9.85,12.19s9.79-3.87,9.79-12.19V110.16H482v24.21c0,13.07-6.44,17.17-14.94,17.17S451.94,147.44,451.94,134.37Zm42.55-24.21h13.07c9.26,0,14.89,3.93,14.89,12.84s-6.09,13.36-14.89,13.36h-7.79v14.83h-5.28Zm12.84,21.75c6.56,0,9.67-3.28,9.67-8.74,0-5.27-3.17-8.49-9.85-8.49h-7.38v17.23Z"/><path class="cls-2" d="M46.84,22.73a4.06,4.06,0,0,0-5.55,1.16,3.9,3.9,0,0,0,1.26,5.39,3.85,3.85,0,0,0,5.3-1.1A4,4,0,0,0,46.84,22.73Z"/><path class="cls-2" d="M54.34,10.25A2.78,2.78,0,1,0,59,13.3a2.78,2.78,0,1,0-4.66-3.05Z"/><path class="cls-2" d="M90.07,106.71l-.29-1,0-.34.26-.56.14-.34,0-1.15-.21-.36-.66-.61-.21-.24-.2-.58-.28-1-.21-.47-.76-.74L87.29,99l-.11-.13-.1-.23,0-1.15,1.46-1.41,0-1.27-.52-1-.08-.58L88,92.7l.37-.44,1.42-.72v-.12l.07-1.14L89.63,86l-.12-4.14-.1-4.26-.1-4.25-.11-4.26-.11-4.25v0L83.72,73s0,.06,0,.1a4.64,4.64,0,0,1,.39,5.45,5,5,0,0,1-6.85,1.55A4.9,4.9,0,0,1,76,73.23a4.48,4.48,0,0,1,5-1.92h0l7.89-12.06-.15-2.9-.11-4.25-.1-4.26-.11-4.25-.1-4.26-.08-2.82L79.84,49.38a6.57,6.57,0,0,1,.7,8.16,7,7,0,0,1-11.66-7.63,6.56,6.56,0,0,1,7.75-2.63L88.07,29.8l-.16-3.13-.1-4.26L87.72,22l-.33-.25-.64-.84L85.93,19l-.3-.71-.07-.61L74.62,34.32,62.18,36.79l-11.77,18a.91.91,0,0,1,.11.16,6.8,6.8,0,0,1,.26,7.86A6.87,6.87,0,1,1,47.5,52.55L60,33.48l12.39-2.72,12-18.19-.08-.35-.44-.37-.89-.51L82.48,11l-.38-1.4-.85-1.31-.4-1-.26-1.4.06-1L80.58,4,81,2.74,81.11.55,65.83,23.92,51.36,27a5.65,5.65,0,0,1-1,2.85,6.94,6.94,0,0,1-9.49,2.1,7.09,7.09,0,0,1-2-9.63,7,7,0,0,1,9.64-2,8.1,8.1,0,0,1,2.48,2.89l12.68-2.53L77.11,0H73.34l-3.8.13-3.4,0L60.45,8.85A4.92,4.92,0,0,1,53.91,16a5,5,0,0,1-1.32-6.9,4.64,4.64,0,0,1,5.24-2l4.56-7h-.55L58.05.3h-7.7l-3.79,0h-3.9l-3.79,0L35.08.27h-3.9L27.39.3H23.48L19.7.21h-.11l-.27.68.32.36.67.38.32.36.32.48.66.5,1.88,1.25.65.73.41.94V5.65l0,1.72.19.7.67.38.53.72.34.14h.23l1.88,1.14.22.24.53.72.23.13.34,0,.1.23.1.35,0,.46L30,13l.49,1.4,0,.35-.18,1.14L29.89,17l-.09,1.72-.31,1.36-.27.67-.35.21-.36.21-1,.64-.25.33-.37.44-.27.67-.26.56,0,.69-.26.56v.11l.11.12v.23l.08.69-.14.34-.13.22-.25.45-1,.52-.24.22-.13.33-.48.32-.83.41-2.2.34-.47.2-.86,1.1-.48.32-.94.41L12,31.81l-.95.63-.51.89-.41,1.13L9.66,35.7,9.48,37l.07.7.08.69.31.59.45.26.22.12,1.1.87.63,1,.4,1.17.15,1.39-.08,1.37-.4,1L10.2,48.71l-.38.55-.25.44,0,.46-.19,1.25,0,.69-.53,1.12-.51.89-.83.53-.82.3-.93.17L5,55.19l-1,.52-.95.52-.37.55,0,.23-.24.22,0,.34v.23l.65.61.21.47,0,.46-.16.91.09.46.06.81,0,.46-.14.34-1.39.38-.61.54L.58,64.58.15,66.05.08,67.31,0,68.69l.53,4.85.1.35.31.48.44.48.1.24.1.23.1.24v.23l0,.68-.17.91,0,.35.11.23.33.25.08.46.66.61.1.24.1.35.07.69.18.93.53.83,5.56,5.14.32.48.31.59.08.58.21.47.32.36,5.18,3.85.55.49.53.72.52,1.06.31.6.08.58.09.46-.05.8,0,.34.1.35.42.72.09.35-.12.22-.14.34-.14.45.21.35.21.36.09.46,0,.46,0,.46,1,2.12.64.84,1,.41.94-.41,1.38-2,1.16-.17.45.15.77.5.45.14.58,0,1.13.29L30,106.55l.88.74.41.82-.14.57-.39.67-.49.66-.25.33-.36.32,0,.69.16,1.16-.07,1.26-.39.89-1.14,1.89-1.11,3.27L26,121.59l-.29,1-.17,1,.27,1.4.09.46.21.36.1.23.21.36,1.31,1.11.1.23.66.61.09.35.21.36.44.37.89.51.54.6.54.72.65.61.79.27,1.31,1.11.34.25.92-.06.22.13.79.15.77.62,1.3,1.45.55.38,1.47.54.55.38.53.83.71,1.65.54.6,2.24.93.66.61-.25.33.09.47.19.58.09.47,0,.57-.14.45,0,.57.08.58.52.95.64,1,.51,1.06.28,1.16L47,151l-.73.76-.74.88,0,1.15.11.12.45.14.22.13.33.24,0,.46.09.47.2.47.52.94,1,1.32.3.82-.05.8.32.48,1.21,1,.89.39.35-.09.13-.23-.09-.46-.21-.24-.22-.24-.21-.24-.2-.59.13-.34.35-.09.57,0,.23.13.07.69.1.35.22.13.44.25.22.24.1.35.09.35.1.24.22.24.22.13.24-.1.35-.1.23-.1.45.25-.87-1-.42-.71-.07-.81.51-.89.74-.88.78-1.56L56,156l.84-.65.94-.4,1-.17,1.14.18,6.49,3,1.67,1,.9.29.93-.18.61-.66L71,157.2l-.06-.92-.41-.94-.75-1-.52-.94L69,152.38l.07-1.15.41-1.24.26-.44.36-.33.36-.21.46-.08,1-.06.46-.09,1.31-.85,4.18-.79.72-.54.16-.79-.5-1.29-.65-.73-.22-.13-.3-.82-.2-.58.15-.68.27-.68.25-.33,1.22-1.19.36-.44.27-.67-.08-.58.13-.34-.56-.26-.45,0h-.12l-.11-.12,0-.23h.11l.57,0,.35-.1.24-.1-.1-.35-1.2-1-.32-.47,1,0,.23,0,.35-.21,0-.23-.1-.24v-.34l-.19-.7,0-.34.24-.11v-.22l0-.46-.09-.47-.1-.23.25-.45-.3-.7.23-.11.35-.09.47-.2.36-.21.25-.33-.33-.25L80,129l-.33-.24.48-.32.49-.55.24-.21.47-.09.23-.11.26-.55-.32-.37L81,126.3l-.21-.24-.11-.12-.22-.25-.1-.23-.09-.35,0-.34.23-.11.13-.22.25-.33.14-.45.14-.45.13-.34.47-.2v.23l.32.36.23.13.14-.57.13-.22.24-.22.12-.11.11.12v.23l.21.36.22.13.13-.22,0-.35,0-.34V122l.25-.33.15-.68.13-.34.24-.1.36-.21.23-.1.37-.44.27-.67.14-.57-.43-.37v-.23l.7-.19.71-.42.24-.21.25-.22.12-.22h.23l.11.12h.11l.14-.34,0-.34-.43-.6-.09-.46.14-.46.14-.33.35-.21.24-.22v-.11l.12-.11,0-.23-.09-.58.15-.56.37-.44.36-.33.24-.1.34,0,.24-.1.12-.22.58-2.15-.28-1.17Z"/><path class="cls-2" d="M41.75,56.9a4.06,4.06,0,0,0,1.16,5.55,4.14,4.14,0,0,0,5.39-1.26,4,4,0,0,0-1.1-5.3A3.9,3.9,0,0,0,41.75,56.9Z"/><path class="cls-2" d="M71.36,51.53a4,4,0,0,0,1.16,5.53,3.91,3.91,0,0,0,4.28-6.54A4,4,0,0,0,71.36,51.53Z"/><path class="cls-2" d="M77.72,74.37a2.75,2.75,0,0,0,.8,3.86,2.72,2.72,0,0,0,3.72-.9,2.7,2.7,0,1,0-4.52-3Z"/></g></g></svg>