<svg xmlns="http://www.w3.org/2000/svg" viewBox="0 0 512 512"><defs><style>.cls-1{fill:#23b574;}.cls-2{fill:#fff;}</style></defs><title>logo-circle</title><g id="Layer_2" data-name="Layer 2"><g id="Layer_1-2" data-name="Layer 1"><circle class="cls-1" cx="256" cy="256" r="256"/><path id="Illinois" class="cls-2" d="M249.91,118.41a9.73,9.73,0,0,0-13.29,2.78,9.33,9.33,0,0,0,3,12.86l.06,0a9.23,9.23,0,0,0,12.69-2.63A9.58,9.58,0,0,0,249.91,118.41Zm18-29.87A6.67,6.67,0,0,0,279,95.84h0a6.67,6.67,0,1,0-11.16-7.3Zm85.53,230.9-.69-2.39v-.82l.62-1.34.34-.81v-2.76l-.51-.86L351.57,309l-.5-.57-.48-1.39-.67-2.39-.5-1.13-1.82-1.77-.86-.77-.27-.31-.23-.55v-2.75l3.49-3.38v-3l-1.24-2.39-.2-1.39.15-1.27.88-1,3.4-1.72v-.29l.17-2.73-.55-10.25-.29-9.91-.24-10.19-.24-10.18-.26-10.19-.26-10.18h0l-12.86,19.54V239a11.12,11.12,0,0,1,.94,13.05,12,12,0,0,1-16.4,3.71,11.73,11.73,0,0,1-3.12-16.29l.1-.15a10.74,10.74,0,0,1,12-4.6h0l18.89-28.87-.36-6.94L350,188.72l-.24-10.2-.27-10.18-.24-10.19L349,151.4,328.9,182.2a15.74,15.74,0,0,1,1.68,19.54,16.76,16.76,0,0,1-27.91-18.27,15.69,15.69,0,0,1,18.55-6.29l27.38-41.85-.38-7.49-.24-10.2-.21-1-.79-.6-1.53-2-2-4.57-.72-1.7-.16-1.46-26.19,39.83-29.78,5.92-28.17,43.08a2.65,2.65,0,0,1,.26.39,16.27,16.27,0,0,1,.62,18.81,16.44,16.44,0,1,1-7.85-24.56l29.92-45.65,29.66-6.51L339.8,94.09l-.2-.84-1.05-.88-2.13-1.22-1.2-.82L334.31,87l-2-3.14-1-2.39-.62-3.35.14-2.39-.16-2.13,1-3,.26-5.24-36.57,55.94-34.64,7.37a13.48,13.48,0,0,1-2.39,6.82,16.61,16.61,0,0,1-22.72,5,17,17,0,0,1-4.79-23,16.76,16.76,0,0,1,23.08-4.79,19.32,19.32,0,0,1,5.93,6.92l30.36-6.06L322.37,64h-9l-9.09.31h-8.14L282.49,85.18a11.78,11.78,0,0,1-15.66,17.12,12,12,0,0,1-3.16-16.52A11.12,11.12,0,0,1,276.22,81l10.91-16.76h-1.31l-9.08.48H230.83l-9.07-.07h-9.34l-9.07.07H194l-9.05-.22h-.26L184,66.13l.77.86,1.6.91.77.86.77,1.15,1.57,1.2,4.51,3,1.55,1.75,1,2.25v3.54l.46,1.68,1.6.91L199.88,86l.81.34h.55l4.5,2.72.53.58,1.27,1.72.55.31h.81l.24.55.24.84v1.1l.22,1,1.17,3.35v.84l-.43,2.73-1,2.65-.22,4.12-.74,3.26-.65,1.6-.84.5-.86.51-2.39,1.53-.6.79-.89,1-.64,1.61-.62,1.34v1.65l-.63,1.34v.26l.27.29v.55l.19,1.65-.34.81-.31.53-.6,1.08-2.39,1.24-.58.53-.31.79-1.15.77-2,1-5.27.81-1.12.48-2.06,2.63-1.15.77-2.25,1-14.7,1-2.27,1.5L163,143.78l-1,2.71-1.12,3-.43,3.11.17,1.68.19,1.65.74,1.41,1.08.62.52.29,2.64,2.08,1.5,2.4,1,2.8.36,3.32-.19,3.28-1,2.4-5.29,6.1-.91,1.32-.6,1.05v1.1l-.45,3v1.66L159,191.4l-1.22,2.13-2,1.27-2,.71-2.23.41-1.82.19-2.39,1.25-2.27,1.24-.89,1.32v.55l-.57.53v1.36l1.55,1.46.5,1.13v1.1l-.38,2.17.22,1.11.14,1.93v1.11l-.33.81-3.33.91-1.46,1.29-1.37,3.21-1,3.52-.16,3-.19,3.31L139.05,240l.24.84L140,242l1.05,1.15.24.58.24.55.24.57v2.18l-.41,2.18v.84l.26.55.79.6.19,1.1,1.58,1.46.24.57.24.84.17,1.65.43,2.23,1.27,2,13.31,12.3.77,1.15.74,1.41.19,1.39.5,1.12.77.87,12.4,9.21,1.31,1.17,1.27,1.73,1.25,2.54.74,1.43.19,1.39.22,1.1-.12,1.92v.81l.24.84,1,1.72.22.84-.29.53-.33.81-.34,1.08.5.83.51.87.21,1.1v2.2l2.39,5.07,1.54,2,2.39,1,2.25-1,3.3-4.79,2.78-.41,1.08.36,1.84,1.2,1.08.33h1.39l2.7.7,5,3.16,2.11,1.77,1,2-.34,1.36-.93,1.61-1.18,1.58-.59.79-.87.76v1.66l.39,2.77-.17,3-.93,2.13L205.34,343l-2.66,7.83L200,355.06l-.69,2.39-.41,2.4.65,3.35.21,1.1.51.86.24.55.5.86,3.13,2.66.24.55,1.58,1.46.22.84.5.86,1.06.89,2.13,1.22,1.29,1.43,1.29,1.73,1.56,1.46,1.89.64,3.13,2.66.82.6,2.2-.15.53.32,1.89.36,1.84,1.48,3.11,3.47,1.32.91,3.52,1.29,1.31.91,1.27,2,1.7,4,1.3,1.43,5.36,2.23,1.58,1.46-.6.79.21,1.13.46,1.38.22,1.13V409l-.34,1.08v1.37l.19,1.38,1.25,2.28,1.53,2.39,1.22,2.54.67,2.78-1.32,2.63-1.74,1.82-1.78,2.11v2.75l.27.29,1.07.33.53.31.79.58v1.1l.22,1.12.48,1.13,1.24,2.25,2.39,3.16.72,2-.12,1.92.77,1.14,2.89,2.4,2.14.93.83-.21.31-.55-.21-1.11-.5-.57-.53-.57-.5-.58-.48-1.41.31-.82.84-.21h1.36l.55.31.17,1.65.24.84.53.31,1.05.6.53.57.23.84.22.84.24.57.53.58.52.31.58-.24.84-.24.55-.24,1.07.6-2.08-2.39-1-1.7-.16-1.94,1.22-2.13,1.77-2.11,1.87-3.73.79-.6,2-1.56,2.25-1,2.39-.4,2.73.43,15.54,7.18,4,2.39,2.16.7,2.22-.43,1.46-1.58,1.15-2.9-.14-2.2-1-2.25-1.8-2.4-1.24-2.25-.62-2.44.16-2.75,1-3,.63-1.05.86-.79.86-.5,1.1-.2,2.4-.14,1.1-.21,3.13-2,10-1.89,1.72-1.29.38-1.89L325.1,410l-1.56-1.75-.52-.31-.72-2-.48-1.39.36-1.63.64-1.63.6-.79,2.92-2.85.86-1.05.65-1.6-.19-1.39.31-.82-1.34-.62h-1.36l-.27-.29v-.55h1.63l.84-.24.57-.23-.24-.84-2.87-2.4-.77-1.12h2.95l.84-.5v-.55l-.24-.58v-.81l-.46-1.68v-.81l.58-.27v-1.62l-.22-1.13-.24-.55.6-1.08-.72-1.67.55-.27.84-.21,1.13-.48.86-.5.6-.79-.79-.6-1.15.41-.79-.58,1.15-.76,1.17-1.32.57-.5,1.13-.22.55-.26.62-1.32-.76-.88-1.25-.63-.5-.57-.27-.29-.52-.6-.24-.55-.22-.84v-.81l.55-.26.32-.53.59-.79.34-1.08.33-1.07.32-.82,1.12-.48v.55l.77.87.55.31.33-1.37.31-.52L336,357l.28-.26.27.28v.55l.5.87.53.31.31-.53V356l.6-.79.36-1.63.31-.81.57-.24.86-.5.55-.24.89-1.06.65-1.6.33-1.36-1-.89v-.55l1.68-.46,1.7-1,.57-.5.6-.53.29-.53h.55l.26.29h.26l.34-.81V342l-1-1.43-.21-1.1.33-1.11.34-.79.83-.5.58-.53v-.26l.28-.26v-.55l-.21-1.39.36-1.34.88-1.05.87-.79.57-.24h.81l.58-.24.29-.53,1.38-5.15-.67-2.8ZM237.73,200.21a9.71,9.71,0,0,0,2.77,13.28,9.9,9.9,0,0,0,12.9-3,9.56,9.56,0,0,0-2.63-12.68,9.33,9.33,0,0,0-13,2.34Zm70.88-12.86a9.57,9.57,0,0,0,2.77,13.24,9.36,9.36,0,0,0,10.25-15.66A9.57,9.57,0,0,0,308.61,187.35ZM323.83,242a6.59,6.59,0,0,0,1.76,9.15l.15.09a6.61,6.61,0,1,0-1.91-9.33h0Z"/></g></g></svg>